# Blender v3.0.0 OBJ File: ''
# www.blender.org
mtllib untitled.mtl
o Circle_Circle.001
v 0.000000 0.000000 -1.000000
v -0.595941 0.016919 0.500000
v 0.595941 0.016919 0.500000
v 0.000000 0.108499 -1.000000
v -0.595941 0.091580 0.500000
v 0.595941 0.091580 0.500000
vt 0.500000 1.000000
vt 0.933013 0.250000
vt 0.066987 0.250000
vt 0.500000 1.000000
vt 0.066987 0.250000
vt 0.933013 0.250000
vn 0.0000 -0.9999 0.0113
vn 0.0000 0.9999 0.0113
vn 0.9293 0.0000 -0.3692
vn 0.0000 0.0000 1.0000
vn -0.9293 0.0000 -0.3692
usemtl None
s off
f 1/1/1 3/2/1 2/3/1
f 4/4/2 5/5/2 6/6/2
f 3/2/3 1/1/3 4/4/3 6/6/3
f 2/3/4 3/2/4 6/6/4 5/5/4
f 1/1/5 2/3/5 5/5/5 4/4/5
